<mxfile host="app.diagrams.net" modified="2024-05-06T01:41:27.216Z" agent="Mozilla/5.0 (Windows NT 10.0; Win64; x64) AppleWebKit/537.36 (KHTML, like Gecko) Chrome/124.0.0.0 Safari/537.36" version="24.3.1" etag="U0g0pUtJBZNEWBet2gGf" type="github">
  <diagram name="PÃ¡gina-1" id="9md2SXwCofvfxPMPIeH4">
    <mxGraphModel>
      <root>
        <mxCell id="0" />
        <mxCell id="1" parent="0" />
      </root>
    </mxGraphModel>
  </diagram>
</mxfile>
